# xmcd
#
# Track frame offsets: 
#        150
#        13586
#        25566
#        41432
#        60509
#        76645
#        97295
#        117226
#
# Disc length: 1818 seconds
#
# Revision: 0
# Processed by: cddbd v1.5PL3 Copyright (c) Steve Scherf et al.
# Submitted via: ExactAudioCopy v0.95a3
#
DISCID=53071808
DTITLE=Various Artist - SXSW Sampler (Koch Records)
DYEAR=2004
DGENRE=Country
TTITLE0=Dale Watson - Honky Tonkers Don't Cry
TTITLE1=Dale Watson - Pretty Girls
TTITLE2=Robert Earl Keen - All I Have Is Today
TTITLE3=Mary Anne
TTITLE4=Rodney Hayden - Broke Down
TTITLE5=Joan Baez - In My Time Of Need
TTITLE6=Abra Moore - I Do
TTITLE7=Steve Forbert - Wild As The Wind
EXTD=
EXTT0=
EXTT1=
EXTT2=
EXTT3=
EXTT4=
EXTT5=
EXTT6=
EXTT7=
PLAYORDER=
